<?xml version="1.0" encoding="UTF-8"?>
<svg version="1.1" xmlns="http://www.w3.org/2000/svg" width="1254" height="1254">
<path d="M0 0 C413.82 0 827.64 0 1254 0 C1254 413.82 1254 827.64 1254 1254 C840.18 1254 426.36 1254 0 1254 C0 840.18 0 426.36 0 0 Z " fill="#010101" transform="translate(0,0)"/>
<path d="M0 0 C301.61805556 0 301.61805556 0 310.515625 2.40234375 C313.92214864 3.22183764 317.36551071 3.81742573 320.8125 4.4375 C327.32367184 5.62794753 333.65006428 7.11717022 340 9 C341.485 9.39445312 341.485 9.39445312 343 9.796875 C378.79566052 19.79860368 411.80852469 48.65602289 429.85742188 80.54125977 C439.39458808 98.10015264 444.91263308 117.32321214 448 137 C448.28810547 138.78083984 448.28810547 138.78083984 448.58203125 140.59765625 C449.35573524 147.17211047 449.24441036 153.82590389 449.25 160.4375 C449.25067474 161.15408783 449.25134949 161.87067566 449.25204468 162.60897827 C449.23590596 173.39703371 448.64697199 183.49715531 446 194 C445.64353543 195.55706402 445.28811975 197.11436844 444.93359375 198.671875 C442.40541201 209.35248033 438.8090327 219.14471773 434 229 C433.52820313 229.97195313 433.05640625 230.94390625 432.5703125 231.9453125 C421.43458078 253.52472482 403.75068817 271.54533273 383 284 C382.35063477 284.3928418 381.70126953 284.78568359 381.03222656 285.19042969 C375.51654194 288.49874227 370.04551927 291.74554847 364 294 C368.71848087 296.15228952 373.43706555 298.1783593 378.28662109 300.01928711 C406.05058534 310.69197462 430.27412955 331.84302064 443 359 C445.35075424 364.54800204 447.18443182 370.25979681 449 376 C449.26055176 376.79744629 449.52110352 377.59489258 449.78955078 378.41650391 C453.40522826 389.50385329 456.17220752 400.46783417 457.73364258 412.03320312 C457.98444492 413.88514046 458.27227249 415.73195554 458.5625 417.578125 C459.26590402 423.34928338 459.1860017 429.16360242 459.18530273 434.96923828 C459.18746518 436.96781522 459.20590429 438.96635318 459.22460938 440.96484375 C459.22654297 442.27582031 459.22847656 443.58679688 459.23046875 444.9375 C459.23457764 446.10152344 459.23868652 447.26554687 459.24291992 448.46484375 C459.04165439 455.33939656 457.90899076 462.19088691 457 469 C475.98606676 468.98613838 494.9718692 468.94364499 513.95779228 468.86790943 C522.77511178 468.8333902 531.59227706 468.80792118 540.40966797 468.80444336 C548.1030825 468.80138515 555.79622146 468.78064782 563.48952973 468.73947543 C567.55575221 468.7183105 571.62158459 468.70545849 575.6878624 468.71384621 C601.01288688 468.75713594 622.13311717 467.71552252 642 450 C652.17885446 438.27735262 658.18942762 423.35625911 657.453125 407.7265625 C655.59475226 392.44304875 650.63113372 378.62498029 639 368 C635.48639554 365.35144709 631.84454594 363.13348238 628 361 C627.22785156 360.53722656 626.45570313 360.07445312 625.66015625 359.59765625 C607.99278708 350.17696831 584.06754434 351.04427004 564.58984375 350.28125 C563.01314217 350.21795893 561.43644654 350.15451944 559.85975647 350.09094238 C556.55768675 349.95833528 553.25555566 349.8274191 549.95336914 349.69775391 C545.84063293 349.53614719 541.72807068 349.37053353 537.61554527 349.20365906 C523.73287735 348.6417911 509.85078256 348.08741102 495.96142578 347.71875 C495.14553891 347.69703987 494.32965204 347.67532974 493.48904133 347.65296173 C489.61756882 347.55136009 485.74605459 347.45519483 481.87425232 347.36706543 C475.63441268 347.21956758 469.3948497 347.03295379 463.16381836 346.66479492 C461.76515785 346.58596321 461.76515785 346.58596321 460.33824158 346.50553894 C457.5795979 345.90910707 456.72234795 345.13112727 455.0625 342.89453125 C454.33591759 341.5543162 453.6497771 340.19158959 453 338.8125 C452.20175275 337.34588364 451.3928391 335.8850304 450.57421875 334.4296875 C450.16220215 333.68944336 449.75018555 332.94919922 449.32568359 332.18652344 C447.17180447 328.63401121 444.55056528 325.55037866 441.8125 322.4375 C441.33748047 321.89134033 440.86246094 321.34518066 440.37304688 320.7824707 C434.27847791 313.90086171 427.86486728 307.88218161 420.5 302.375 C419.77941406 301.8284375 419.05882812 301.281875 418.31640625 300.71875 C413.93003216 297.40319056 409.48771384 294.17682901 405 291 C407.94962863 287.85372946 411.01270327 285.18610869 414.4375 282.5625 C437.94786509 263.88015632 451.91832255 239.94160274 462 212 C462.66 212 463.32 212 464 212 C464.72960937 212.74894531 465.45921875 213.49789062 466.2109375 214.26953125 C469.19121355 217.18719645 471.90757943 218.82039825 475.625 220.6875 C477.31496094 221.55955078 477.31496094 221.55955078 479.0390625 222.44921875 C489.6529522 226.97350228 501.36280341 226.30645574 512.67036057 226.33552551 C515.8359917 226.3439158 519.001348 226.36451739 522.16690063 226.38806152 C528.90289203 226.43602751 535.63891178 226.46905633 542.375 226.5 C550.15744197 226.53595598 557.93975027 226.57839682 565.72206497 226.63594055 C568.8018211 226.65563224 571.8814681 226.66425347 574.96127319 226.67224121 C591.42158195 226.76135671 607.71226364 228.02243352 624 230.4375 C624.87333984 230.56600342 625.74667969 230.69450684 626.64648438 230.8269043 C633.53184257 231.87131973 640.27047863 233.19195691 647 235 C647.78906738 235.21027832 648.57813477 235.42055664 649.39111328 235.63720703 C659.86811114 238.45235604 670.17873873 241.31761913 680 246 C680.60086426 246.28601074 681.20172852 246.57202148 681.82080078 246.86669922 C696.54630514 253.92747424 710.34226896 261.61845656 723 272 C723.55606934 272.45310547 724.11213867 272.90621094 724.68505859 273.37304688 C761.83246163 303.77315977 783.86405499 347.41477802 789.34594727 395.00317383 C792.30707871 427.17099304 788.87185807 459.19798231 776 489 C775.53086182 490.10239014 775.53086182 490.10239014 775.05224609 491.22705078 C766.93762583 510.03553926 755.87195155 525.99448755 742 541 C741.26652344 541.81597656 740.53304687 542.63195312 739.77734375 543.47265625 C728.51779464 555.42643575 714.54534215 564.57791606 700 572 C698.84757813 572.60199219 697.69515625 573.20398438 696.5078125 573.82421875 C679.10133286 582.44992414 660.44482672 587.97296278 641.21500105 590.56592667 C639.01142854 590.86344199 636.81006974 591.17769423 634.61088902 591.50610149 C621.5314919 593.28883557 608.562088 593.27391509 595.38011169 593.24050903 C592.8039383 593.24138239 590.22776507 593.24313576 587.65159279 593.24568737 C582.07550456 593.24980754 576.49945929 593.24659442 570.92337608 593.23841095 C562.63211896 593.22627674 554.34088858 593.22574526 546.04962419 593.22749493 C532.09838159 593.23011512 518.14715801 593.22346892 504.19592094 593.21146011 C490.39129988 593.19960808 476.58668674 593.1919246 462.78206062 593.18975449 C461.92230785 593.18961701 461.06255507 593.18947953 460.17674918 593.18933788 C455.81013359 593.18866117 451.443518 593.18805842 447.0769024 593.18748413 C416.18383124 593.18328826 385.29077042 593.16982739 354.39770508 593.15087891 C324.39379937 593.13249709 294.38989652 593.11837005 264.38598633 593.10986328 C262.49779095 593.109322 260.60959558 593.10878059 258.7214002 593.10823905 C243.37792741 593.10386123 228.03445455 593.09977618 212.69098166 593.09576209 C141.79397798 593.07700343 70.89700129 593.03685833 0 593 C0 397.31 0 201.62 0 0 Z " fill="#FDFDFD" transform="translate(239,305)"/>
<path d="M0 0 C1.28090374 -0.00085442 2.56180747 -0.00170885 3.88152647 -0.00258917 C7.42075412 -0.00481667 10.9599513 -0.0008368 14.49917507 0.0041889 C18.3218377 0.00851833 22.14449869 0.0070452 25.96716309 0.00628662 C32.58484808 0.00576297 39.20252318 0.00889323 45.82020569 0.01452446 C55.38819431 0.02266091 64.95617816 0.02525688 74.52416986 0.02651245 C90.04862734 0.0286996 105.57307956 0.03535055 121.09753418 0.04481506 C136.17565891 0.0539979 151.25378221 0.06107447 166.33190918 0.06532288 C167.26175001 0.0655856 168.19159084 0.06584832 169.14960867 0.06611901 C173.81447382 0.06742407 178.47933898 0.06868777 183.14420414 0.06993091 C221.82721888 0.08029302 260.51022774 0.09790217 299.1932373 0.12025452 C298.54609959 4.8314477 297.7174112 9.34814402 296.5213623 13.95228577 C296.35865341 14.58223953 296.19594452 15.2121933 296.02830505 15.86123657 C295.50397181 17.88614629 294.97391865 19.90950006 294.4432373 21.93275452 C294.0789388 23.33132298 293.714763 24.72992342 293.35070801 26.1285553 C286.36170233 52.91418435 286.36170233 52.91418435 282.97473145 62.62635803 C281.99119736 65.76500243 281.23058949 68.93544204 280.45495605 72.13197327 C278.25914518 81.04657181 275.80260819 89.88209265 273.30163574 98.71522522 C272.55854689 101.34200968 271.8210253 103.97031728 271.0838623 106.59877014 C270.60762869 108.28701399 270.13107817 109.97516849 269.6541748 111.66322327 C269.43643402 112.44030136 269.21869324 113.21737946 268.99435425 114.01800537 C268.68360458 115.11118828 268.68360458 115.11118828 268.36657715 116.22645569 C268.18766937 116.85992416 268.0087616 117.49339264 267.82443237 118.14605713 C267.06477842 120.52203712 266.12770846 122.80816741 265.1932373 125.12025452 C263.95470725 125.12356466 262.7161772 125.12687481 261.44011593 125.13028526 C231.9896797 125.20943273 202.53929199 125.29870141 173.08892557 125.40030613 C169.45808767 125.41282386 165.8272495 125.42525681 162.19641113 125.43763733 C161.11223403 125.44133632 161.11223403 125.44133632 160.00615437 125.44511004 C148.32805372 125.48475151 136.6499435 125.5175368 124.9718151 125.54775433 C112.97437241 125.578952 100.97697008 125.61759642 88.97957283 125.66304457 C82.24698447 125.68833801 75.51442105 125.7102782 68.78179741 125.72359848 C62.43628231 125.73649142 56.09086451 125.75862303 49.74540329 125.78763771 C47.42479445 125.79665719 45.10416997 125.80239045 42.78354454 125.80446815 C21.01088744 125.82743935 1.10468803 126.15002674 -16.8067627 140.12025452 C-17.7967627 140.78025452 -18.7867627 141.44025452 -19.8067627 142.12025452 C-19.98852051 141.04388733 -20.17027832 139.96752014 -20.35754395 138.85853577 C-24.38395632 113.04120713 -24.38395632 113.04120713 -33.8614502 88.90931702 C-34.95127951 86.84674748 -35.70116988 84.75126349 -36.4942627 82.55775452 C-45.14973004 60.56545812 -62.26631612 40.8191845 -80.1114502 25.75697327 C-80.67090332 25.21685608 -81.23035645 24.67673889 -81.8067627 24.12025452 C-81.8067627 23.46025452 -81.8067627 22.80025452 -81.8067627 22.12025452 C-56.64330477 7.74579215 -29.06581461 -0.07110609 0 0 Z " fill="#FCFCFC" transform="translate(725.8067626953125,306.87974548339844)"/>
<path d="M0 0 C37.72364003 -0.1209091 37.72364003 -0.1209091 53.60546875 -0.14648438 C64.54512786 -0.16424316 75.48471733 -0.18505097 86.42431641 -0.22631836 C94.3937255 -0.2563668 102.36307777 -0.27560939 110.33254194 -0.28226548 C114.54621389 -0.28615178 118.75972339 -0.29518426 122.9733429 -0.31719017 C126.95257352 -0.33780038 130.93157731 -0.3437852 134.91085625 -0.33932304 C136.3586749 -0.34013743 137.80650245 -0.34595526 139.25427437 -0.35761642 C158.5433173 -0.50514539 176.44652769 2.63313027 190.81640625 16.5546875 C202.07452816 29.16217286 205.20409072 42.92653826 205.29516602 59.33496094 C205.30660814 60.76409874 205.32693495 62.19319648 205.35668945 63.62207031 C205.7109706 80.68298384 201.47386845 96.08092281 189.51171875 108.67578125 C174.5126378 122.55517964 155.22504451 124.33268342 135.6628418 124.22705078 C134.17325854 124.2264851 132.68367473 124.22680629 131.1940918 124.22793579 C127.19287289 124.22850418 123.19177654 124.21683424 119.19058585 124.20278788 C114.99325942 124.19019375 110.79592945 124.18910323 106.59858704 124.18673706 C98.66935812 124.1805476 90.74018506 124.16417147 82.81098062 124.14403808 C72.08279956 124.11739526 61.35460298 124.10668594 50.62639713 124.09503365 C33.75088967 124.07628875 16.87550002 124.03642631 0 124 C0 83.08 0 42.16 0 0 Z " fill="#020202" transform="translate(363,652)"/>
<path d="M0 0 C37.05192279 -0.08060607 37.05192279 -0.08060607 52.63671875 -0.09765625 C63.3768099 -0.1095009 74.11686956 -0.12338838 84.85693359 -0.15087891 C92.68056192 -0.17089481 100.50416457 -0.18373579 108.3278178 -0.18817699 C112.46537448 -0.19077056 116.60285776 -0.19681017 120.74039078 -0.21146011 C124.64571279 -0.22517403 128.55093213 -0.22919517 132.45627594 -0.22621536 C133.87912685 -0.22675942 135.30198169 -0.23065379 136.72481155 -0.23841095 C154.72214062 -0.33160396 170.46141392 1.69965506 185 13 C197.28500509 25.44695431 200.27068473 41.31501644 200.24658203 58.13525391 C200.04111711 71.90140395 195.7221821 84.52928091 186 94.5 C173.49886826 106.52031898 158.29806966 108.78540273 141.56616211 108.56762695 C140.0070246 108.56621142 138.44788377 108.56701829 136.88874817 108.56983948 C132.71603078 108.57125537 128.54405394 108.54216768 124.37150645 108.50696969 C119.98872326 108.47539596 115.6059171 108.4727513 111.22303772 108.46684265 C102.9502728 108.45139427 94.67784414 108.41048981 86.40522629 108.3600952 C75.20752685 108.29338423 64.00973336 108.26669431 52.81188488 108.23758411 C35.20767212 108.19077973 17.60416843 108.0911084 0 108 C0 72.36 0 36.72 0 0 Z " fill="#020202" transform="translate(363,425)"/>
<path d="M0 0 C0.66 0.66 1.32 1.32 2 2 C0.47005208 3.20442708 -1.05989583 4.40885417 -2.58984375 5.61328125 C-4.27155077 7.05683091 -4.27155077 7.05683091 -5 10 C-5.99 9.67 -6.98 9.34 -8 9 C-7.04270084 7.87411986 -6.08412105 6.7493285 -5.125 5.625 C-4.59132813 4.99851562 -4.05765625 4.37203125 -3.5078125 3.7265625 C-2.38567993 2.44163349 -1.20628025 1.20628025 0 0 Z " fill="#0F0F0F" transform="translate(983,843)"/>
<path d="M0 0 C0.66 0 1.32 0 2 0 C1.625 1.9375 1.625 1.9375 1 4 C0.01 4.495 0.01 4.495 -1 5 C-1.33 5.99 -1.66 6.98 -2 8 C-2.99 7.67 -3.98 7.34 -5 7 C-4.21654285 5.82780457 -3.42297164 4.66236332 -2.625 3.5 C-2.18414063 2.8503125 -1.74328125 2.200625 -1.2890625 1.53125 C-0.65097656 0.77328125 -0.65097656 0.77328125 0 0 Z " fill="#191A1A" transform="translate(1000,821)"/>
<path d="M0 0 C0 4.38968456 -2.12805101 5.76905739 -5 9 C-5.99 8.34 -6.98 7.68 -8 7 C-5.36 4.69 -2.72 2.38 0 0 Z " fill="#CFCED0" transform="translate(550,517)"/>
</svg>
